- 
http://www.Speed.Cd      fast  and The Hottest Private Tracker on the net

   signup is open now

Please Seed back to make the speed Faster!!!

------------------nfo--------------------------
-Horrid Henry The Movie 2011 Rip XviD - FYA

imdb: 
http://www.imdb.com/title/tt1684555/

plot:
Horrid Henry finds himself doing things 
he never ever thought he'd do, and then 
some. 

Notes:
Ok here goes source was terrible and i mean 
terrible :P :P

[IMG]http://i.imgur.com/UDfy3.png[/IMG]
[IMG]http://i.imgur.com/8f8TO.png[/IMG]

Who ever uploaded this piece of :shit: 
needs a serious slap round the face
WTF would make u do such a thing... :blink:

so any way after working alittle bit of
magic on the video as we knew no 1 else
would be bother'd or able to :P :P
we fixed it up a little as below in screens 
you will see :P :P

so here you go something else for you
recode kings to re-encode and flood
the WWW. with :P ;) :D

TAKE IT OR LEAVE IT JUS DONT BITCH 
LIKE A 
BIATCH 

info:
Video:
ID                               : 0
Format                           : MPEG-4 Visual
Format profile                   : Advanced Simple@L5
Format settings, BVOP            : 2
Format settings, QPel            : No
Format settings, GMC             : No warppoints
Format settings, Matrix          : Default (H.263)
Codec ID                         : XVID
Codec ID/Hint                    : XviD
Duration                         : 1h 34mn
Bit rate                         : 1 486 Kbps
Width                            : 720 pixels
Height                           : 304 pixels
Display aspect ratio             : 2.35:1
Frame rate                       : 25.000 fps
Color space                      : YUV
Chroma subsampling               : 4:2:0
Bit depth                        : 8 bits
Scan type                        : Progressive
Compression mode                 : Lossy
Bits/(Pixel*Frame)               : 0.272
Stream size                      : 999 MiB (91%)

Audio:
ID                               : 1
Format                           : MPEG Audio
Format version                   : Version 1
Format profile                   : Layer 3
Codec ID                         : 55
Codec ID/Hint                    : MP3
Duration                         : 1h 34mn
Bit rate mode                    : Constant
Bit rate                         : 128 Kbps
Channel(s)                       : 2 channels
Sampling rate                    : 48.0 KHz
Compression mode                 : Lossy
Stream size                      : 86.1 MiB (8%)
Alignment                        : Split accross interleaves
Interleave, duration             : 24 ms (0.60 video frame)

Screens:
[IMG]http://i.imgur.com/KKx6t.png[/IMG]
[IMG]http://i.imgur.com/wcWpm.png[/IMG]
[IMG]http://i.imgur.com/yGYuQ.png[/IMG]
[IMG]http://i.imgur.com/Be7O7.png[/IMG]
[IMG]http://i.imgur.com/hYbuE.png[/IMG]

Greetings to a very good friend ;)